<?xml version="1.0" encoding="utf-8"?>
<!-- Generator: Adobe Illustrator 24.0.0, SVG Export Plug-In . SVG Version: 6.00 Build 0)  -->
<svg version="1.1" id="图层_1" xmlns="http://www.w3.org/2000/svg" xmlns:xlink="http://www.w3.org/1999/xlink" x="0px" y="0px"
	 viewBox="0 0 32 32" style="enable-background:new 0 0 32 32;" xml:space="preserve">
<style type="text/css">
	.st0{fill:url(#SVGID_1_);}
	.st1{fill:url(#SVGID_2_);}
	.st2{fill:url(#SVGID_3_);}
	.st3{fill:url(#SVGID_4_);}
	.st4{fill:url(#SVGID_5_);}
	.st5{fill:url(#SVGID_6_);}
	.st6{fill:url(#SVGID_7_);}
	.st7{fill:#8FFAFA;}
	.st8{fill:url(#SVGID_8_);}
	.st9{fill:#FFFFFF;}
	.st10{fill:url(#SVGID_9_);}
</style>
<g>
	
		<linearGradient id="SVGID_1_" gradientUnits="userSpaceOnUse" x1="2.4469" y1="-1972.9" x2="3.8584" y2="-1972.9" gradientTransform="matrix(1 0 0 -1 0 -1962)">
		<stop  offset="0" style="stop-color:#2F9BFF"/>
		<stop  offset="0.3214" style="stop-color:#44A5FF"/>
		<stop  offset="0.6289" style="stop-color:#5CB1FF"/>
	</linearGradient>
	<polygon class="st0" points="3.5,15.4 2.4,6.4 2.8,6.4 3.9,15.4 	"/>
	<g>
		
			<radialGradient id="SVGID_2_" cx="2.6429" cy="-1968.4167" r="0.7267" gradientTransform="matrix(1 0 0 -1 0 -1962)" gradientUnits="userSpaceOnUse">
			<stop  offset="0.3711" style="stop-color:#5CB1FF"/>
			<stop  offset="0.6786" style="stop-color:#44A5FF"/>
			<stop  offset="1" style="stop-color:#2F9BFF"/>
		</radialGradient>
		<path class="st1" d="M1.9,6.5c0-0.4,0.2-0.8,0.6-0.8s0.8,0.2,0.8,0.6S3.1,7.1,2.7,7.1C2.3,7.2,2,6.9,1.9,6.5z"/>
	</g>
</g>
<linearGradient id="SVGID_3_" gradientUnits="userSpaceOnUse" x1="4.1224" y1="-1979.7449" x2="1.1482" y2="-1979.6898" gradientTransform="matrix(1 0 0 -1 0 -1962)">
	<stop  offset="0" style="stop-color:#2F9BFF"/>
	<stop  offset="0.3214" style="stop-color:#44A5FF"/>
	<stop  offset="0.6289" style="stop-color:#5CB1FF"/>
</linearGradient>
<path class="st2" d="M3.1,21.9c-1.3,0-2.4-1.9-2.4-4.2s1.1-4.2,2.4-4.2h1.3V22C4.4,21.9,3.1,21.9,3.1,21.9z"/>
<g>
	<g>
		
			<linearGradient id="SVGID_4_" gradientUnits="userSpaceOnUse" x1="28.1356" y1="-1972.9" x2="29.547" y2="-1972.9" gradientTransform="matrix(1 0 0 -1 0 -1962)">
			<stop  offset="0" style="stop-color:#2F9BFF"/>
			<stop  offset="0.3214" style="stop-color:#44A5FF"/>
			<stop  offset="0.6289" style="stop-color:#5CB1FF"/>
		</linearGradient>
		<polygon class="st3" points="28.5,15.4 28.1,15.4 29.2,6.4 29.5,6.4 		"/>
		<g>
			
				<radialGradient id="SVGID_5_" cx="29.351" cy="-1968.4167" r="0.7267" gradientTransform="matrix(1 0 0 -1 0 -1962)" gradientUnits="userSpaceOnUse">
				<stop  offset="0.3711" style="stop-color:#5CB1FF"/>
				<stop  offset="0.6786" style="stop-color:#44A5FF"/>
				<stop  offset="1" style="stop-color:#2F9BFF"/>
			</radialGradient>
			<path class="st4" d="M28.6,6.3c0-0.4,0.4-0.7,0.8-0.6c0.4,0,0.7,0.4,0.6,0.8c0,0.4-0.4,0.7-0.8,0.6C28.9,7.1,28.6,6.7,28.6,6.3z"
				/>
		</g>
	</g>
	
		<linearGradient id="SVGID_6_" gradientUnits="userSpaceOnUse" x1="27.6107" y1="-1979.75" x2="31.2561" y2="-1979.75" gradientTransform="matrix(1 0 0 -1 0 -1962)">
		<stop  offset="0" style="stop-color:#2F9BFF"/>
		<stop  offset="0.3214" style="stop-color:#44A5FF"/>
		<stop  offset="0.6289" style="stop-color:#5CB1FF"/>
	</linearGradient>
	<path class="st5" d="M28.9,21.9c1.3,0,2.4-1.9,2.4-4.2s-1.1-4.2-2.4-4.2h-1.3V22L28.9,21.9L28.9,21.9z"/>
</g>
<radialGradient id="SVGID_7_" cx="15.9511" cy="-1978.0067" r="11.7169" gradientTransform="matrix(1 0 0 -1 0 -1962)" gradientUnits="userSpaceOnUse">
	<stop  offset="0" style="stop-color:#FFFFFF"/>
	<stop  offset="0.2894" style="stop-color:#FBFDFF"/>
	<stop  offset="0.5843" style="stop-color:#EFF7FF"/>
	<stop  offset="0.8808" style="stop-color:#DAEDFF"/>
	<stop  offset="0.9888" style="stop-color:#D1E8FF"/>
</radialGradient>
<path class="st6" d="M21.8,26.2c-3.3,0.6-8.8,0.5-11.7,0c-3.7-0.7-6.8-3.1-6.8-6.8v-1.5C3.3,11,9,5.4,15.8,5.4h0.3
	c6.9,0,12.5,5.6,12.5,12.5v1.5C28.7,23.2,25.5,25.6,21.8,26.2z"/>
<path class="st7" d="M16.1,22.9c-2.1,0-4.1-0.2-5.8-0.6c-1-0.2-1.8-0.6-2.4-1.2c-0.7-0.6-1.1-1.4-1.1-2.3c0-0.1-0.1-1.3-0.1-1.7
	c0-1.4,0.4-2.7,1.1-3.7s1.7-1.6,2.7-1.6c1.2,0,2.3,0.7,3,2c0.5,0.8,1.4,1.4,2.4,1.4s1.9-0.5,2.4-1.4c0.7-1.3,1.8-2,3-2
	c1,0,2,0.6,2.7,1.6s1.1,2.3,1.1,3.7c0,0.4-0.1,1.6-0.1,1.7c0,1.7-1.2,2.9-3.5,3.5C20.1,22.7,18.2,22.9,16.1,22.9z"/>
<radialGradient id="SVGID_8_" cx="15.9156" cy="-4592.2993" r="10.2923" gradientTransform="matrix(1 0 0 -0.4902 0 -2233.7822)" gradientUnits="userSpaceOnUse">
	<stop  offset="0.3711" style="stop-color:#5CB1FF"/>
	<stop  offset="0.6786" style="stop-color:#44A5FF"/>
	<stop  offset="1" style="stop-color:#2F9BFF"/>
</radialGradient>
<path class="st8" d="M24.8,17.1c0-2.8-1.6-4.9-3.5-4.9c-1.2,0-2.2,0.8-2.8,1.9C18,15,17,15.6,15.9,15.6l0,0c-1.1,0-2-0.6-2.6-1.5
	c-0.7-1.2-1.7-1.9-2.8-1.9c-2,0-3.5,2.2-3.5,4.9c0,0.4,0.1,1.7,0.1,1.7c0,1.8,1.5,2.9,3.2,3.2c3.5,0.8,8.1,0.8,11.2,0
	c1.7-0.5,3.2-1.5,3.2-3.2C24.7,18.8,24.8,17.5,24.8,17.1z"/>
<g>
	<g>
		<g>
			<ellipse class="st9" cx="10.5" cy="16.6" rx="2" ry="2.9"/>
			<ellipse class="st9" cx="21.5" cy="16.6" rx="2" ry="2.9"/>
		</g>
	</g>
</g>
<linearGradient id="SVGID_9_" gradientUnits="userSpaceOnUse" x1="18.0909" y1="-1965.4623" x2="14.1804" y2="-1971.025" gradientTransform="matrix(1 0 0 -1 0 -1962)">
	<stop  offset="0" style="stop-color:#2F9BFF"/>
	<stop  offset="0.3214" style="stop-color:#44A5FF"/>
	<stop  offset="0.6289" style="stop-color:#5CB1FF"/>
</linearGradient>
<path class="st10" d="M20.9,6.3L20.5,7c-1.4-0.6-2.8-0.8-4.3-0.8h-0.3c-1.5,0-2.9,0.3-4.3,0.8l-0.4-0.7c1.4-0.6,3-0.9,4.7-0.9h0.3
	C17.8,5.4,19.4,5.7,20.9,6.3z"/>
<g>
	<g>
		<path class="st9" d="M14.5,21.6c1,0.3,2.1,0.3,3,0c0.7-0.2,0.5-1.2-0.2-1.2h-2.6C14,20.4,13.8,21.4,14.5,21.6z"/>
	</g>
</g>
</svg>
