<?xml version="1.0" encoding="utf-8"?>
<!-- Generator: Adobe Illustrator 24.0.0, SVG Export Plug-In . SVG Version: 6.00 Build 0)  -->
<svg version="1.1" id="图层_1" xmlns="http://www.w3.org/2000/svg" xmlns:xlink="http://www.w3.org/1999/xlink" x="0px" y="0px"
	 viewBox="0 0 128 128" style="enable-background:new 0 0 128 128;" xml:space="preserve">
<style type="text/css">
	.st0{fill:url(#SVGID_1_);}
	.st1{fill:url(#SVGID_2_);}
	.st2{fill:url(#SVGID_3_);}
	.st3{fill:url(#SVGID_4_);}
	.st4{fill:url(#SVGID_5_);}
	.st5{fill:url(#SVGID_6_);}
	.st6{fill:url(#SVGID_7_);}
	.st7{fill:#8FFAFA;}
	.st8{fill:url(#SVGID_8_);}
	.st9{fill:#FFFFFF;}
	.st10{fill:url(#SVGID_9_);}
</style>
<g>
	
		<linearGradient id="SVGID_1_" gradientUnits="userSpaceOnUse" x1="8.9381" y1="84.65" x2="14.6932" y2="84.65" gradientTransform="matrix(1 0 0 -1 0 130)">
		<stop  offset="0" style="stop-color:#2F9BFF"/>
		<stop  offset="0.3214" style="stop-color:#44A5FF"/>
		<stop  offset="0.6289" style="stop-color:#5CB1FF"/>
	</linearGradient>
	<polygon class="st0" points="13.1,63.8 8.9,27.1 10.5,26.9 14.7,63.6 	"/>
	<g>
		
			<radialGradient id="SVGID_2_" cx="9.7373" cy="102.85" r="2.9632" gradientTransform="matrix(1 0 0 -1 0 130)" gradientUnits="userSpaceOnUse">
			<stop  offset="0.3711" style="stop-color:#5CB1FF"/>
			<stop  offset="0.6786" style="stop-color:#44A5FF"/>
			<stop  offset="1" style="stop-color:#2F9BFF"/>
		</radialGradient>
		<path class="st1" d="M6.8,27.5c-0.2-1.6,1-3.1,2.6-3.3c1.6-0.2,3.1,1,3.3,2.6s-1,3.1-2.6,3.3C8.4,30.3,7,29.1,6.8,27.5z"/>
	</g>
</g>
<linearGradient id="SVGID_3_" gradientUnits="userSpaceOnUse" x1="15.7724" y1="56.8213" x2="3.6454" y2="57.0458" gradientTransform="matrix(1 0 0 -1 0 130)">
	<stop  offset="0" style="stop-color:#2F9BFF"/>
	<stop  offset="0.3214" style="stop-color:#44A5FF"/>
	<stop  offset="0.6289" style="stop-color:#5CB1FF"/>
</linearGradient>
<path class="st2" d="M11.7,90.4C6.3,90.4,2,82.6,2,73.1s4.4-17.2,9.7-17.2h5.1v34.5C16.8,90.4,11.7,90.4,11.7,90.4z"/>
<g>
	<g>
		
			<linearGradient id="SVGID_4_" gradientUnits="userSpaceOnUse" x1="113.6822" y1="84.65" x2="119.4373" y2="84.65" gradientTransform="matrix(1 0 0 -1 0 130)">
			<stop  offset="0" style="stop-color:#2F9BFF"/>
			<stop  offset="0.3214" style="stop-color:#44A5FF"/>
			<stop  offset="0.6289" style="stop-color:#5CB1FF"/>
		</linearGradient>
		<polygon class="st3" points="115.2,63.8 113.7,63.6 117.9,26.9 119.4,27.1 		"/>
		<g>
			
				<radialGradient id="SVGID_5_" cx="118.6381" cy="102.85" r="2.9632" gradientTransform="matrix(1 0 0 -1 0 130)" gradientUnits="userSpaceOnUse">
				<stop  offset="0.3711" style="stop-color:#5CB1FF"/>
				<stop  offset="0.6786" style="stop-color:#44A5FF"/>
				<stop  offset="1" style="stop-color:#2F9BFF"/>
			</radialGradient>
			<path class="st4" d="M115.7,26.8c0.2-1.6,1.7-2.8,3.3-2.6c1.6,0.2,2.8,1.7,2.6,3.3c-0.2,1.6-1.7,2.8-3.3,2.6
				C116.7,29.9,115.5,28.4,115.7,26.8z"/>
		</g>
	</g>
	
		<linearGradient id="SVGID_6_" gradientUnits="userSpaceOnUse" x1="111.5422" y1="56.75" x2="126.4059" y2="56.75" gradientTransform="matrix(1 0 0 -1 0 130)">
		<stop  offset="0" style="stop-color:#2F9BFF"/>
		<stop  offset="0.3214" style="stop-color:#44A5FF"/>
		<stop  offset="0.6289" style="stop-color:#5CB1FF"/>
	</linearGradient>
	<path class="st5" d="M116.7,90.4c5.4,0,9.7-7.7,9.7-17.2S122,56,116.7,56h-5.1v34.5L116.7,90.4L116.7,90.4z"/>
</g>
<radialGradient id="SVGID_7_" cx="64.1003" cy="63.7746" r="47.7086" gradientTransform="matrix(1 0 0 -1 0 130)" gradientUnits="userSpaceOnUse">
	<stop  offset="0" style="stop-color:#FFFFFF"/>
	<stop  offset="0.2894" style="stop-color:#FBFDFF"/>
	<stop  offset="0.5843" style="stop-color:#EFF7FF"/>
	<stop  offset="0.8808" style="stop-color:#DAEDFF"/>
	<stop  offset="0.9888" style="stop-color:#D1E8FF"/>
</radialGradient>
<path class="st6" d="M88,107.9c-13.6,2.3-35.8,2.1-47.7,0c-15.1-2.7-27.8-12.5-27.8-27.8v-6.2c0-28.1,23-51,51-51h1.2
	c28.1,0,51,23,51,51v6.2C115.8,95.4,103.1,105.4,88,107.9z"/>
<path class="st7" d="M64.8,94.5c-8.4,0-16.6-0.9-23.8-2.6c-4-0.9-7.4-2.6-9.8-4.8c-2.9-2.6-4.3-5.8-4.3-9.5c0-0.4-0.3-5.3-0.3-7
	c0-5.6,1.6-11,4.5-15c3-4.1,6.9-6.4,11.1-6.4c4.9,0,9.4,3,12.4,8.3c1.9,3.4,5.6,5.6,9.6,5.6s7.7-2.1,9.6-5.6c3-5.3,7.5-8.3,12.4-8.3
	c4.2,0,8.2,2.3,11.1,6.4c2.9,4,4.5,9.3,4.5,15c0,1.7-0.3,6.5-0.3,7c0,6.8-5,11.9-14.1,14.3C81,93.6,73.1,94.5,64.8,94.5z"/>
<radialGradient id="SVGID_8_" cx="64.2" cy="-435.8572" r="42.2539" gradientTransform="matrix(1 0 0 -0.4902 0 -141.7822)" gradientUnits="userSpaceOnUse">
	<stop  offset="0.3711" style="stop-color:#5CB1FF"/>
	<stop  offset="0.6786" style="stop-color:#44A5FF"/>
	<stop  offset="1" style="stop-color:#2F9BFF"/>
</radialGradient>
<path class="st8" d="M100.9,70.6c0-11.3-6.6-20.4-14.7-20.4c-4.7,0-8.9,3.1-11.6,7.9c-2.1,3.8-6.1,6-10.4,6l0,0
	c-4.3,0-8.3-2.3-10.4-6c-2.7-4.8-6.9-7.9-11.6-7.9c-8.1,0-14.7,9.1-14.7,20.4c0,1.7,0.3,7,0.3,7C27.8,85,34,89.3,41.2,91
	c14.5,3.4,33,3.4,45.9,0c7.1-1.9,13.4-6,13.4-13.4C100.6,77.6,100.9,72.3,100.9,70.6z"/>
<g>
	<g>
		<g>
			<ellipse class="st9" cx="41.7" cy="68.5" rx="8" ry="11.8"/>
			<ellipse class="st9" cx="86.6" cy="68.5" rx="8" ry="11.8"/>
		</g>
	</g>
</g>
<linearGradient id="SVGID_9_" gradientUnits="userSpaceOnUse" x1="72.6088" y1="114.9787" x2="56.6639" y2="92.2966" gradientTransform="matrix(1 0 0 -1 0 130)">
	<stop  offset="0" style="stop-color:#2F9BFF"/>
	<stop  offset="0.3214" style="stop-color:#44A5FF"/>
	<stop  offset="0.6289" style="stop-color:#5CB1FF"/>
</linearGradient>
<path class="st10" d="M84,26.7l-1.5,2.7C76.8,27.1,70.9,26,64.8,26h-1.2c-6.1,0-12,1.1-17.7,3.4l-1.5-2.7c5.9-2.4,12.4-3.8,19.2-3.8
	h1.2C71.6,22.9,78.1,24.3,84,26.7z"/>
<g>
	<g>
		<path class="st9" d="M58,89.1c4,1.3,8.4,1.3,12.4,0c2.7-0.9,2-4.9-0.8-4.9H58.8C55.9,84.2,55.3,88.2,58,89.1z"/>
	</g>
</g>
</svg>
